<?xml version="1.0" encoding="UTF-8" standalone="no"?>
<svg
   xmlns:dc="http://purl.org/dc/elements/1.1/"
   xmlns:cc="http://creativecommons.org/ns#"
   xmlns:rdf="http://www.w3.org/1999/02/22-rdf-syntax-ns#"
   xmlns:svg="http://www.w3.org/2000/svg"
   xmlns="http://www.w3.org/2000/svg"
   xmlns:sodipodi="http://sodipodi.sourceforge.net/DTD/sodipodi-0.dtd"
   xmlns:inkscape="http://www.inkscape.org/namespaces/inkscape"
   version="1.1"
   width="580"
   height="200"
   viewBox="0 0 580 200"
   enable-background="new 0 0 24.00 24.00"
   xml:space="preserve"
   id="svg4"
   sodipodi:docname="progress-download-dark.svg"
   inkscape:version="1.0.2-2 (e86c870879, 2021-01-15)"><metadata
   id="metadata10"><rdf:RDF><cc:Work
       rdf:about=""><dc:format>image/svg+xml</dc:format><dc:type
         rdf:resource="http://purl.org/dc/dcmitype/StillImage" /><dc:title></dc:title></cc:Work></rdf:RDF></metadata><defs
   id="defs8" /><sodipodi:namedview
   pagecolor="#ffffff"
   bordercolor="#666666"
   borderopacity="1"
   objecttolerance="10"
   gridtolerance="10"
   guidetolerance="10"
   inkscape:pageopacity="0"
   inkscape:pageshadow="2"
   inkscape:window-width="1920"
   inkscape:window-height="1017"
   id="namedview6"
   showgrid="false"
   inkscape:zoom="1.5652103"
   inkscape:cx="279.39903"
   inkscape:cy="54.285886"
   inkscape:window-x="-8"
   inkscape:window-y="-8"
   inkscape:window-maximized="1"
   inkscape:current-layer="svg4"
   inkscape:document-rotation="0" />
	<path
   fill="#000000"
   fill-opacity="1"
   stroke-width="0.641288"
   stroke-linejoin="round"
   d="m 293.1271,68 c 15.17471,1.506207 27.26699,13.526056 28.71067,28.748356 1.7645,17.625824 -11.06566,33.263774 -28.71067,35.026354 v -6.40939 c 11.67779,-1.37802 20.85608,-10.63638 22.33184,-22.30147 1.73242,-14.068612 -8.24791,-26.855024 -22.33184,-28.585559 v -6.40939 z m -6.41636,0.09999 v 6.40939 c -4.58771,0.640939 -8.92,2.498701 -12.51317,5.382926 l -4.58671,-4.74423 c 4.87644,-4.037916 10.84392,-6.439194 17.09988,-7.048086 z m -21.6239,11.567022 4.58668,4.581752 c -2.85528,3.621306 -4.6476,7.948926 -5.25715,12.499592 H 258 c 0.64164,-6.281202 3.04453,-12.210208 7.08684,-17.081344 z m -7.0555,23.490738 h 6.41637 c 0.57747,4.55066 2.40261,8.87828 5.22581,12.49959 l -4.55536,4.58175 c -3.97815,-4.87114 -6.44518,-10.80014 -7.08682,-17.08134 z m 16.16623,17.20632 c 3.62525,2.82013 7.95755,4.64969 12.51317,5.22654 V 132 c -6.28804,-0.67299 -12.25552,-3.20405 -17.09988,-7.24197 z m 15.72135,-5.98989 -14.43683,-14.421129 h 11.22865 V 87.134272 h 6.41636 v 12.818779 h 11.22864 z"
   id="path2"
   style="fill:#ffffff;fill-opacity:0.2" />
</svg>
